# xmcd
#
# Track frame offsets: 
#        150
#        20535
#        35460
#        62259
#        91025
#        106495
#        144310
#        160539
#        181728
#        207582
#        230408
#        247101
#        265740
#        282852
#        305430
#
# Disc length: 4429 seconds
#
# Revision: 2
# Processed by: cddbd v1.5.2PL0 Copyright (c) Steve Scherf et al.
# Submitted via: ExactAudioCopyFreeDBPlugin 1.0
#
DISCID=c0114b0f
DTITLE=Blues Company - Limited Jubilee Edition [CD 4) - With A Little 
DTITLE=Help...
DYEAR=2017
DGENRE=Blues
TTITLE0=Blow Jay Blow (feat. Big Jay McNeely and Albie Donnely)
TTITLE1=Look Here Baby (feat. Louisiana Red)
TTITLE2=Silent Night (feat. Stan Web)
TTITLE3=Comin' Home Baby (feat. Johnny Heartsman)
TTITLE4=Blues Is My Middle Name (feat. Steve Baker)
TTITLE5=Move On Down The Line (feat. Johnny Heartsman)
TTITLE6=Dance All Nite (feat. Joanna Connor)
TTITLE7=She's Gone (feat. Carey Bell)
TTITLE8=Drinkin' Blues (feat. Louisiana Red)
TTITLE9=I'm Scared To Move (feat. Ana Popovic)
TTITLE10=Bad Dreams (feat. Luther Allison)
TTITLE11=Cry For Me (feat. Carey Bell)
TTITLE12=Things Won't Be The Same (feat. Sax Gordon)
TTITLE13=Pension Blues (feat. Louisiana Red)
TTITLE14=Ev'ryday I Have The Blues (feat. Stan Web and Luther Allison)
EXTD=
EXTT0=
EXTT1=
EXTT2=
EXTT3=
EXTT4=
EXTT5=
EXTT6=
EXTT7=
EXTT8=
EXTT9=
EXTT10=
EXTT11=
EXTT12=
EXTT13=
EXTT14=
PLAYORDER=
